<svg width="249" height="101" viewBox="0 0 249 101" fill="none" xmlns="http://www.w3.org/2000/svg">
<path d="M193.731 23.5157C193.731 19.1451 191.908 14.9574 188.674 11.876C185.431 8.7855 181.036 7.05737 176.459 7.05737C171.883 7.05737 167.478 8.79464 164.245 11.876C161.002 14.9665 159.188 19.1542 159.188 23.5157C159.188 27.8771 161.011 32.074 164.245 35.1554C167.488 38.2459 171.883 39.974 176.459 39.974C181.036 39.974 185.44 38.2367 188.674 35.1554C191.917 32.0649 193.731 27.8771 193.731 23.5157ZM169.119 30.5013C167.171 28.6452 166.087 26.1399 166.087 23.5157C166.087 20.8915 167.181 18.3862 169.119 16.53C171.067 14.6739 173.696 13.6407 176.45 13.6407C179.204 13.6407 181.833 14.6831 183.78 16.53C185.728 18.3862 186.813 20.8915 186.813 23.5157C186.813 26.1399 185.719 28.6452 183.78 30.5013C181.833 32.3575 179.204 33.3907 176.45 33.3907C173.696 33.3907 171.067 32.3483 169.119 30.5013Z" fill="#FFBD00"/>
<path d="M214.465 52.0536C214.465 56.4242 216.288 60.6119 219.522 63.6933C222.765 66.7838 227.16 68.5119 231.737 68.5119C236.313 68.5119 240.718 66.7746 243.951 63.6933C247.194 60.6028 249.008 56.415 249.008 52.0536C249.008 47.6921 247.185 43.4953 243.951 40.4139C240.718 37.3325 236.313 35.5953 231.737 35.5953C227.16 35.5953 222.756 37.3325 219.522 40.4139C216.288 43.4953 214.465 47.6921 214.465 52.0536ZM239.077 45.0679C241.025 46.9241 242.109 49.4294 242.109 52.0536C242.109 54.6778 241.015 57.1831 239.077 59.0392C237.129 60.8954 234.5 61.9286 231.746 61.9286C228.992 61.9286 226.363 60.8862 224.416 59.0392C222.468 57.1922 221.383 54.6778 221.383 52.0536C221.383 49.4294 222.477 46.9241 224.416 45.0679C226.363 43.2118 228.992 42.1786 231.746 42.1786C234.5 42.1786 237.129 43.221 239.077 45.0679Z" fill="#7A5BEE"/>
<path d="M188.665 92.2387C191.908 89.1482 193.721 84.9605 193.721 80.5991C193.721 76.2376 191.898 72.0407 188.665 68.9594C185.421 65.8689 181.027 64.1407 176.45 64.1407C171.873 64.1407 167.469 65.878 164.235 68.9594C160.992 72.0499 159.179 76.2376 159.179 80.5991C159.179 84.9605 161.002 89.1574 164.235 92.2387C167.469 95.3201 171.873 97.0574 176.45 97.0574C181.027 97.0574 185.431 95.3201 188.665 92.2387ZM169.119 87.5847C167.172 85.7286 166.087 83.2232 166.087 80.5991C166.087 77.9749 167.181 75.4696 169.119 73.6134C171.067 71.7573 173.696 70.7241 176.45 70.7241C179.204 70.7241 181.833 71.7664 183.781 73.6134C185.728 75.4604 186.813 77.9749 186.813 80.5991C186.813 83.2232 185.719 85.7286 183.781 87.5847C181.833 89.4408 179.204 90.474 176.45 90.474C173.696 90.474 171.067 89.4317 169.119 87.5847Z" fill="#FF009A"/>
<path d="M195.87 17.3808C195.87 18.2586 196.235 19.0907 196.878 19.7124C197.53 20.3342 198.403 20.6725 199.325 20.6725C204.065 20.6725 208.757 21.6234 213.074 23.4887C217.392 25.3448 221.249 28.0604 224.377 31.4527C224.992 32.0927 225.836 32.4768 226.747 32.5225C227.649 32.5682 228.542 32.2756 229.223 31.6996C229.904 31.1235 230.317 30.328 230.384 29.4594C230.451 28.5999 230.154 27.7496 229.559 27.0912C225.778 22.9949 221.125 19.7216 215.915 17.4814C210.704 15.2412 205.043 14.08 199.325 14.0892C198.403 14.0892 197.53 14.4366 196.878 15.0492C196.225 15.671 195.87 16.503 195.87 17.3808Z" fill="#FFBD00"/>
<path d="M213.074 81.5312C208.756 83.3874 204.064 84.3474 199.324 84.3474C198.403 84.3474 197.53 84.6949 196.878 85.3075C196.225 85.9292 195.87 86.7613 195.87 87.6391C195.87 88.5169 196.235 89.3489 196.878 89.9707C197.53 90.5924 198.403 90.9307 199.324 90.9307C205.043 90.9307 210.704 89.7787 215.914 87.5385C221.125 85.2984 225.778 82.0158 229.559 77.9287C230.144 77.2704 230.441 76.42 230.384 75.5605C230.317 74.701 229.904 73.8964 229.223 73.3204C228.542 72.7443 227.659 72.4517 226.747 72.4974C225.845 72.5432 224.991 72.9272 224.377 73.5672C221.249 76.9595 217.392 79.6751 213.074 81.5312Z" fill="#7A5BEE"/>
<path d="M165.751 64.0032C166.115 63.738 166.422 63.3997 166.653 63.0157C166.883 62.6317 167.027 62.2111 167.084 61.7722C167.142 61.3333 167.104 60.8944 166.969 60.4647C166.269 57.8679 165.914 55.1889 165.923 52.5007C165.923 49.8125 166.278 47.1426 166.969 44.5367C167.094 44.1161 167.132 43.668 167.084 43.2292C167.027 42.7903 166.883 42.3697 166.653 41.9856C166.422 41.6016 166.115 41.2725 165.751 40.9981C165.386 40.733 164.964 40.541 164.513 40.4312C164.062 40.3215 163.601 40.2941 163.141 40.3672C162.68 40.4312 162.249 40.5867 161.855 40.8153C161.462 41.0439 161.116 41.3456 160.848 41.7022C160.579 42.0588 160.387 42.4611 160.282 42.8909C158.583 49.1907 158.583 55.7923 160.282 62.0922C160.387 62.522 160.579 62.9243 160.848 63.2809C161.116 63.6375 161.462 63.9392 161.855 64.1678C162.249 64.3964 162.69 64.5518 163.141 64.6158C163.601 64.6798 164.062 64.6615 164.513 64.5518C164.964 64.4421 165.377 64.2501 165.751 63.9849L165.751 64.0032Z" fill="#FF009A"/>
<path d="M29.255 38.7115C29.7915 38.7115 30.2514 38.9031 30.6347 39.2863C31.0179 39.6696 31.2096 40.1423 31.2096 40.7044C31.2096 41.2409 31.0179 41.7008 30.6347 42.0841C30.2514 42.4673 29.7915 42.6589 29.255 42.6589H27.1855C26.6745 42.6589 26.189 42.544 25.7291 42.314C25.2948 42.0841 24.9754 41.7775 24.771 41.3942V46.913C24.771 47.8072 24.4516 48.561 23.8129 49.1742C23.1741 49.8129 22.4076 50.1323 21.5134 50.1323H12.507C10.7185 50.1323 9.07058 49.6852 7.56313 48.7909C6.05569 47.9222 4.85485 46.7214 3.9606 45.1884C3.06635 43.6809 2.61923 42.033 2.61923 40.2445V33.9975H6.56669V40.2445C6.56669 41.3176 6.83496 42.3012 7.37151 43.1955C7.90806 44.1153 8.62345 44.8435 9.5177 45.38C10.4375 45.9165 11.4339 46.1848 12.507 46.1848H19.8654C20.2231 46.1848 20.4658 46.0571 20.5936 45.8016C20.7469 45.5716 20.8235 45.2778 20.8235 44.9201V15.9465H24.771V36.0671C24.771 36.7825 25.0009 37.4084 25.4608 37.945C25.9463 38.456 26.5212 38.7115 27.1855 38.7115H29.255ZM40.8372 38.7115V42.6589H28.8032V38.7115H40.8372ZM70.4985 29.0919C71.3928 30.5994 71.8399 32.2601 71.8399 34.0742V39.248C71.8399 40.1934 71.5077 40.9982 70.8434 41.6625C70.1791 42.3268 69.3871 42.6589 68.4673 42.6589H40.0686V38.7115H45.2808V24.4546H49.1899V27.9422L59.116 24.9529C60.1125 24.6463 61.1345 24.493 62.182 24.493C63.9194 24.493 65.5291 24.9018 67.011 25.7194C68.4929 26.5369 69.6554 27.6611 70.4985 29.0919ZM67.8924 34.0742C67.8924 32.9244 67.6242 31.9152 67.0876 31.0465C66.6277 30.2289 65.9506 29.5902 65.0564 29.1303C64.1621 28.6448 63.204 28.4021 62.182 28.4021C61.5177 28.4021 60.879 28.4915 60.2658 28.6704L49.1899 32.043V38.7115H67.0876C67.3176 38.7115 67.5092 38.6348 67.6625 38.4815C67.8158 38.3027 67.8924 38.0855 67.8924 37.83V34.0742ZM77.3212 15.8315H81.2687V42.6589H77.3212V15.8315ZM107.074 42.6589H103.739C103.612 45.1628 102.692 47.2196 100.98 48.8292C99.6258 50.1067 98.0673 50.9499 96.3043 51.3587C94.5669 51.7675 92.0247 51.9719 88.6777 51.9719L88.716 48.0244H90.0574C92.0247 48.0244 93.6727 47.8839 95.0013 47.6028C96.3299 47.3473 97.4541 46.798 98.3739 45.9549C99.0382 45.3417 99.447 44.4474 99.6002 43.2721L99.6386 42.6589H95.3845C93.7238 42.6589 92.2036 42.2501 90.8239 41.4325C89.4697 40.6149 88.3966 39.5035 87.6046 38.0983C86.8381 36.6675 86.4548 35.1089 86.4548 33.4226C86.4548 31.7619 86.8381 30.2417 87.6046 28.862C88.3966 27.4567 89.4697 26.3581 90.8239 25.5661C92.2036 24.7485 93.7238 24.3397 95.3845 24.3397H103.739V38.7115H107.074V42.6589ZM99.7535 28.3254H95.3845C93.9537 28.3254 92.7529 28.8237 91.782 29.8201C90.8366 30.791 90.364 31.9919 90.364 33.4226C90.364 34.9045 90.8366 36.1565 91.782 37.1785C92.7529 38.2005 93.9537 38.7115 95.3845 38.7115H99.7535V28.3254ZM118.348 38.7115V42.6589H106.314V38.7115H118.348ZM122.293 16.2148C122.932 16.2148 123.494 16.4575 123.979 16.943C124.465 17.4029 124.708 17.9522 124.708 18.5909C124.708 19.2552 124.465 19.8301 123.979 20.3156C123.519 20.7754 122.957 21.0054 122.293 21.0054C121.629 21.0054 121.054 20.7754 120.568 20.3156C120.109 19.8301 119.879 19.2552 119.879 18.5909C119.879 17.9522 120.109 17.4029 120.568 16.943C121.054 16.4575 121.629 16.2148 122.293 16.2148ZM128.732 16.2148C129.396 16.2148 129.971 16.4575 130.456 16.943C130.942 17.4029 131.184 17.9522 131.184 18.5909C131.184 19.2552 130.942 19.8301 130.456 20.3156C129.971 20.7754 129.396 21.0054 128.732 21.0054C128.067 21.0054 127.505 20.7754 127.045 20.3156C126.585 19.8301 126.355 19.2552 126.355 18.5909C126.355 17.9522 126.585 17.4029 127.045 16.943C127.531 16.4575 128.093 16.2148 128.732 16.2148ZM117.924 42.6589C117.362 42.6589 116.889 42.4673 116.506 42.0841C116.097 41.6753 115.893 41.2026 115.893 40.666C115.893 40.1039 116.097 39.644 116.506 39.2863C116.889 38.9031 117.362 38.7115 117.924 38.7115H122.37C122.983 38.7115 123.481 38.5071 123.864 38.0983C124.273 37.6895 124.478 37.1913 124.478 36.6036V24.3397H128.425V36.6036C128.425 37.7023 128.144 38.7115 127.582 39.6313C127.045 40.5511 126.304 41.292 125.359 41.8541C124.439 42.3907 123.43 42.6589 122.331 42.6589H117.924Z" fill="#7A5BEE"/>
<path d="M19.4479 68.3183V66.1929H38.2351V68.3183H30.0244V92.1028H27.6586V68.3183H19.4479ZM47.828 92.5076C46.1496 92.5076 44.6652 92.0817 43.3747 91.2298C42.0927 90.378 41.0891 89.2014 40.3637 87.7001C39.6384 86.1904 39.2757 84.4487 39.2757 82.4751C39.2757 80.4847 39.6384 78.7346 40.3637 77.2248C41.0891 75.7067 42.0927 74.5259 43.3747 73.6825C44.6652 72.8306 46.1496 72.4047 47.828 72.4047C49.5064 72.4047 50.9866 72.8306 52.2686 73.6825C53.5506 74.5343 54.5543 75.7151 55.2796 77.2248C56.0134 78.7346 56.3803 80.4847 56.3803 82.4751C56.3803 84.4487 56.0176 86.1904 55.2923 87.7001C54.5669 89.2014 53.559 90.378 52.2686 91.2298C50.9866 92.0817 49.5064 92.5076 47.828 92.5076ZM47.828 90.4455C49.1775 90.4455 50.3203 90.0828 51.2565 89.3574C52.1927 88.6321 52.9012 87.6664 53.3819 86.4603C53.8711 85.2542 54.1157 83.9258 54.1157 82.4751C54.1157 81.0244 53.8711 79.6918 53.3819 78.4773C52.9012 77.2628 52.1927 76.2886 51.2565 75.5549C50.3203 74.8211 49.1775 74.4542 47.828 74.4542C46.487 74.4542 45.3441 74.8211 44.3995 75.5549C43.4633 76.2886 42.7506 77.2628 42.2614 78.4773C41.7807 79.6918 41.5403 81.0244 41.5403 82.4751C41.5403 83.9258 41.7807 85.2542 42.2614 86.4603C42.7506 87.6664 43.4633 88.6321 44.3995 89.3574C45.3357 90.0828 46.4785 90.4455 47.828 90.4455ZM64.9769 92.1028L59.1066 72.6704H61.4851L66.0902 88.6996H66.2546L70.8471 72.6704H73.2382L77.7926 88.6616H77.9698L82.5748 72.6704H84.9533L79.0831 92.1028H76.7552L72.1501 76.1748H71.9098L67.3047 92.1028H64.9769ZM94.758 92.5456C93.5857 92.5456 92.5145 92.3179 91.5446 91.8624C90.5747 91.3985 89.8029 90.7322 89.2294 89.8635C88.6559 88.9863 88.3691 87.9236 88.3691 86.6754C88.3691 85.7139 88.5505 84.9042 88.9131 84.2463C89.2758 83.5884 89.7903 83.0487 90.4566 82.6269C91.1229 82.2052 91.9115 81.8721 92.8224 81.6275C93.7333 81.3829 94.737 81.1931 95.8334 81.0582C96.9214 80.9232 97.8408 80.8052 98.5914 80.7039C99.3505 80.6027 99.9282 80.4425 100.325 80.2232C100.721 80.0039 100.919 79.6497 100.919 79.1605V78.705C100.919 77.3809 100.523 76.3392 99.73 75.5802C98.9456 74.8127 97.8154 74.4289 96.3395 74.4289C94.9394 74.4289 93.7965 74.7367 92.911 75.3524C92.0338 75.9681 91.4181 76.6935 91.0639 77.5285L88.9258 76.7567C89.3644 75.694 89.9716 74.8464 90.7476 74.2138C91.5235 73.5728 92.3923 73.1132 93.3538 72.8348C94.3153 72.5481 95.2894 72.4047 96.2762 72.4047C97.0184 72.4047 97.7901 72.5017 98.5914 72.6957C99.4011 72.8897 100.152 73.227 100.843 73.7078C101.535 74.1801 102.096 74.8422 102.526 75.694C102.956 76.5375 103.171 77.6086 103.171 78.9075V92.1028H100.919V89.0285H100.78C100.51 89.602 100.11 90.1587 99.5782 90.6985C99.0468 91.2383 98.3805 91.6811 97.5793 92.0269C96.778 92.3727 95.8376 92.5456 94.758 92.5456ZM95.0617 90.4834C96.2593 90.4834 97.2967 90.2177 98.1739 89.6864C99.0511 89.155 99.7258 88.4508 100.198 87.5736C100.679 86.688 100.919 85.7139 100.919 84.6512V81.8426C100.751 82.0028 100.468 82.1462 100.072 82.2727C99.6836 82.3992 99.2324 82.5131 98.7179 82.6143C98.2119 82.7071 97.7058 82.7872 97.1998 82.8547C96.6937 82.9221 96.2383 82.9812 95.8334 83.0318C94.737 83.1667 93.8008 83.3776 93.0248 83.6644C92.2489 83.9511 91.6543 84.3475 91.241 84.8536C90.8277 85.3512 90.6211 85.9922 90.6211 86.7766C90.6211 87.9574 91.0428 88.8725 91.8862 89.5219C92.7296 90.1629 93.7881 90.4834 95.0617 90.4834ZM122.218 76.9339L120.156 77.5158C119.953 76.9339 119.666 76.4067 119.295 75.9344C118.924 75.4621 118.439 75.0868 117.84 74.8084C117.25 74.5301 116.516 74.3909 115.639 74.3909C114.323 74.3909 113.244 74.703 112.4 75.3271C111.557 75.9513 111.135 76.7567 111.135 77.7435C111.135 78.5785 111.422 79.2575 111.995 79.7804C112.577 80.2949 113.471 80.7039 114.678 81.0076L117.613 81.7287C119.24 82.1251 120.459 82.7535 121.269 83.6138C122.087 84.474 122.496 85.5536 122.496 86.8525C122.496 87.9489 122.192 88.9231 121.585 89.7749C120.978 90.6268 120.13 91.2973 119.042 91.7865C117.963 92.2673 116.71 92.5076 115.285 92.5076C113.387 92.5076 111.823 92.0817 110.591 91.2298C109.36 90.3696 108.571 89.1297 108.225 87.5104L110.389 86.979C110.667 88.1345 111.211 89.0074 112.021 89.5978C112.839 90.1882 113.914 90.4834 115.247 90.4834C116.74 90.4834 117.933 90.1503 118.827 89.484C119.721 88.8092 120.168 87.9658 120.168 86.9537C120.168 86.1693 119.907 85.5114 119.384 84.9801C118.861 84.4403 118.068 84.0439 117.005 83.7909L113.83 83.0318C112.143 82.6269 110.895 81.9859 110.085 81.1088C109.275 80.2316 108.871 79.1436 108.871 77.8448C108.871 76.7736 109.162 75.8332 109.744 75.0235C110.325 74.2054 111.127 73.5644 112.147 73.1005C113.168 72.6366 114.332 72.4047 115.639 72.4047C117.419 72.4047 118.84 72.8095 119.903 73.6192C120.974 74.4205 121.745 75.5253 122.218 76.9339ZM129.679 66.1929V92.1028H127.427V66.1929H129.679Z" fill="#FF009A"/>
</svg>
